<svg xmlns="http://www.w3.org/2000/svg" xlink="http://www.w3.org/1999/xlink" width="0" height="0" style="display:none;"><symbol viewBox="0 0 24 24" id="lightbulb-line"><path fill="none" d="M0 0h24v24H0z"/><path d="M9.973 18H11v-5h2v5h1.027c.132-1.202.745-2.194 1.74-3.277.113-.122.832-.867.917-.973a6 6 0 1 0-9.37-.002c.086.107.807.853.918.974.996 1.084 1.609 2.076 1.741 3.278zM10 20v1h4v-1h-4zm-4.246-5a8 8 0 1 1 12.49.002C17.624 15.774 16 17 16 18.5V21a2 2 0 0 1-2 2h-4a2 2 0 0 1-2-2v-2.5C8 17 6.375 15.774 5.754 15z"/></symbol><symbol viewBox="0 0 24 24" id="flask-line"><path fill="none" d="M0 0H24V24H0z"/><path d="M16 2v2h-1v3.243c0 1.158.251 2.301.736 3.352l4.282 9.276c.347.753.018 1.644-.734 1.99-.197.092-.411.139-.628.139H5.344c-.828 0-1.5-.672-1.5-1.5 0-.217.047-.432.138-.629l4.282-9.276C8.749 9.545 9 8.401 9 7.243V4H8V2h8zm-2.612 8.001h-2.776c-.104.363-.23.721-.374 1.071l-.158.361L6.125 20h11.749l-3.954-8.567c-.214-.464-.392-.943-.532-1.432zM11 7.243c0 .253-.01.506-.029.758h2.058c-.01-.121-.016-.242-.021-.364L13 7.243V4h-2v3.243z"/></symbol><symbol viewBox="0 0 24 24" id="eraser-line"><path fill="none" d="M0 0h24v24H0z"/><path d="M8.586 8.858l-4.95 4.95 5.194 5.194H10V19h1.172l3.778-3.778-6.364-6.364zM10 7.444l6.364 6.364 2.828-2.829-6.364-6.364L10 7.444zM14 19h7v2h-9l-3.998.002-6.487-6.487a1 1 0 0 1 0-1.414L12.12 2.494a1 1 0 0 1 1.415 0l7.778 7.778a1 1 0 0 1 0 1.414L14 19z"/></symbol><symbol viewBox="0 0 24 24" id="eraser-fill"><path fill="none" d="M0 0h24v24H0z"/><path d="M14 19h7v2h-9l-3.998.002-6.487-6.487a1 1 0 0 1 0-1.414L12.12 2.494a1 1 0 0 1 1.415 0l7.778 7.778a1 1 0 0 1 0 1.414L14 19zm1.657-4.485l3.535-3.536-6.364-6.364-3.535 3.536 6.364 6.364z"/></symbol><symbol viewBox="0 0 24 24" id="flask-fill"><path fill="none" d="M0 0H24V24H0z"/><path d="M16 2v2h-1v3.243c0 1.158.251 2.301.736 3.352l4.282 9.276c.347.753.018 1.644-.734 1.99-.197.092-.411.139-.628.139H5.344c-.828 0-1.5-.672-1.5-1.5 0-.217.047-.432.138-.629l4.282-9.276C8.749 9.545 9 8.401 9 7.243V4H8V2h8zm-3 2h-2v4h2V4z"/></symbol><symbol viewBox="0 0 24 24" id="lightbulb-fill"><path fill="none" d="M0 0h24v24H0z"/><path d="M11 18H7.941c-.297-1.273-1.637-2.314-2.187-3a8 8 0 1 1 12.49.002c-.55.685-1.888 1.726-2.185 2.998H13v-5h-2v5zm5 2v1a2 2 0 0 1-2 2h-4a2 2 0 0 1-2-2v-1h8z"/></symbol><symbol viewBox="0 0 24 24" id="pencil-line"><path fill="none" d="M0 0h24v24H0z"/><path d="M15.728 9.686l-1.414-1.414L5 17.586V19h1.414l9.314-9.314zm1.414-1.414l1.414-1.414-1.414-1.414-1.414 1.414 1.414 1.414zM7.242 21H3v-4.243L16.435 3.322a1 1 0 0 1 1.414 0l2.829 2.829a1 1 0 0 1 0 1.414L7.243 21z"/></symbol><symbol viewBox="0 0 24 24" id="pencil-fill"><path fill="none" d="M0 0h24v24H0z"/><path d="M12.9 6.858l4.242 4.243L7.242 21H3v-4.243l9.9-9.9zm1.414-1.414l2.121-2.122a1 1 0 0 1 1.414 0l2.829 2.829a1 1 0 0 1 0 1.414l-2.122 2.121-4.242-4.242z"/></symbol></svg>